<svg t="1721287152938" class="icon" viewBox="0 0 1024 1024" version="1.1" xmlns="http://www.w3.org/2000/svg" p-id="5263" width="200" height="200"><path d="M660 760h-84.992V356q0-15.008-10.496-25.504T539.008 320h-96q-15.008 0-25.504 10.496t-10.496 25.504q0 14.016 10.496 24.992t25.504 11.008h60v368h-84.992q-15.008 0-25.504 10.496t-10.496 25.504q0 15.008 10.496 25.504t25.504 10.496h242.016q15.008 0 25.504-10.496t10.496-25.504q0-15.008-10.496-25.504t-25.504-10.496zM503.008 220.512q0-14.496 10.496-25.504t25.504-11.008 25.504 11.008 10.496 25.504-10.496 24.992-25.504 10.496-25.504-10.496-10.496-24.992z" p-id="5264"></path></svg>
