<svg t="1723531913666" class="icon" viewBox="0 0 1024 1024" version="1.1" xmlns="http://www.w3.org/2000/svg" p-id="5380" width="200" height="200"><path d="M938.666667 308.736V768h-1.322667A170.666667 170.666667 0 1 1 853.333333 641.493333V356.224l-448 84.48V789.333333h-1.322666A170.666667 170.666667 0 1 1 320 662.826667V150.528l618.666667-116.650667v274.858667zM234.666667 896a85.333333 85.333333 0 1 0 0-170.666667 85.333333 85.333333 0 0 0 0 170.666667z m533.333333-21.333333a85.333333 85.333333 0 1 0 0-170.666667 85.333333 85.333333 0 0 0 0 170.666667zM405.333333 221.269333v132.608l448-84.48V136.789333l-448 84.48z" p-id="5381"></path></svg>
