<svg t="1723540979865" class="icon" viewBox="0 0 1035 1024" version="1.1" xmlns="http://www.w3.org/2000/svg" p-id="7340" width="200" height="200"><path d="M1013.852766 1011.332492a42.225028 42.225028 0 0 1-59.70619 0L702.316509 759.502424a428.900723 428.900723 0 1 1 133.958901-196.00858 41.718328 41.718328 0 0 1-4.919216 14.166497c-1.330088 3.61024-2.385714 7.347155-3.800252 10.91517l-2.385714-2.385714a42.225028 42.225028 0 0 1-72.690386-29.13527l-0.380025-3.905815a41.950565 41.950565 0 0 1 11.379645-28.670794l-3.926928-3.905815a336.976836 336.976836 0 1 0-88.123633 150.764463 6.333754 6.333754 0 0 0 0.612262-0.928951l61.120729 1.055626 145.254096 145.232984 0.274463-0.274463 135.12009 135.12009a42.225028 42.225028 0 0 1 0.042225 59.79064z" p-id="7341"></path></svg>
